<?xml version="1.0" encoding="UTF-8" standalone="no"?><!DOCTYPE svg PUBLIC "-//W3C//DTD SVG 1.1//EN" "http://www.w3.org/Graphics/SVG/1.1/DTD/svg11.dtd"><svg width="200" height="163" viewBox="0 0 1259 1021" version="1.1" xmlns="http://www.w3.org/2000/svg" xmlns:xlink="http://www.w3.org/1999/xlink" xml:space="preserve" xmlns:serif="http://www.serif.com/" style="fill-rule:evenodd;clip-rule:evenodd;stroke-linejoin:round;stroke-miterlimit:2;"><rect id="Artboard1" x="-353.627" y="-510.417" width="2543.05" height="1675.51" style="fill:none;"/><g id="Magnifying-Glass" serif:id="Magnifying Glass"><g id="Lens"><g id="Dark-shaded" serif:id="Dark shaded"><path d="M741.928,260.321c0.024,-6.15 -0.017,-30.722 -0.017,-36.959c-0.001,-22.512 15.484,-44.884 46.488,-61.812c62.289,-34.009 163.781,-33.248 226.503,1.698c31.498,17.549 47.267,40.404 47.27,63.12c0.001,6.224 0.004,30.855 0.016,37.059c0.047,22.547 -15.438,44.959 -46.486,61.911c-62.289,34.009 -163.781,33.249 -226.503,-1.697c-31.592,-17.602 -47.36,-40.541 -47.271,-63.32Zm286.225,-15.511c-5.602,7.41 -14.488,14.253 -25.891,20.479c-54.85,29.947 -144.22,29.189 -199.45,-1.583c-11.88,-6.62 -21.104,-13.851 -26.864,-21.627c5.602,-7.411 14.488,-14.254 25.891,-20.48c54.85,-29.947 144.22,-29.188 199.45,1.584c11.88,6.619 21.105,13.85 26.864,21.627Z" style="fill:#e3913b;"/><path d="M962.934,143.72c18.893,4.451 36.595,10.962 51.968,19.528c16.483,9.183 28.658,19.82 36.52,31.127l-0,48.538l-24.751,-0c-5.804,-7.059 -14.474,-13.652 -25.382,-19.73c-55.23,-30.772 -144.6,-31.531 -199.45,-1.584c-11.403,6.226 -20.289,13.069 -25.891,20.48c0.207,0.279 0.418,0.557 0.633,0.834l-25.48,-0l0,-49.036c7.651,-11.848 20.082,-22.927 37.298,-32.327c14.183,-7.744 30.399,-13.685 47.73,-17.83l126.805,-0Z" style="fill-opacity:0.1;"/></g><path id="Lens1" serif:id="Lens" d="M828.429,286.256c-9.123,-3.089 -17.719,-6.876 -25.617,-11.276c-20.872,-11.629 -33.546,-25.146 -33.641,-40.197c-0.093,-14.813 12.252,-27.925 32.651,-39.063c54.85,-29.947 144.22,-29.188 199.45,1.584c20.872,11.629 33.547,25.146 33.641,40.197c0.093,14.812 -12.252,27.925 -32.651,39.062c-8.946,4.885 -18.81,8.952 -29.335,12.112l-17.312,4.622c-30.77,6.628 -65.108,6.971 -96.587,1.022l-30.599,-8.063Z" style="fill:url(#_Linear1);"/><path id="Top" d="M788.399,161.55c62.289,-34.009 163.781,-33.248 226.503,1.698c62.721,34.945 63.072,90.928 0.783,124.937c-62.289,34.009 -163.781,33.248 -226.502,-1.697c-22.833,-12.722 -37.4,-28.231 -43.689,-44.453c-2.388,-6.159 -3.583,-12.422 -3.583,-18.673c-0.001,-22.512 15.484,-44.884 46.488,-61.812Zm13.423,22.896c54.85,-29.947 144.22,-29.188 199.45,1.584c20.872,11.629 33.547,25.146 33.641,40.197c0.093,14.812 -12.252,27.924 -32.651,39.062c-54.85,29.947 -144.22,29.189 -199.45,-1.583c-20.872,-11.629 -33.546,-25.146 -33.641,-40.198c-0.093,-14.812 12.252,-27.924 32.651,-39.062Z" style="fill:#e3b246;"/></g><g id="Handle"><g id="Metal-connector" serif:id="Metal connector"><path id="Metal" d="M1017.52,315.311c-1.771,-0.987 -2.867,-3.093 -2.867,-6.079c-0,-5.954 4.36,-13.169 9.73,-16.101c2.674,-1.46 5.098,-1.585 6.858,-0.606l-0,-0l33.656,18.8l-0,0c1.788,0.98 2.897,3.093 2.897,6.096c0,5.955 -4.36,13.169 -9.73,16.101c-2.696,1.472 -5.137,1.587 -6.9,0.583l-0,-0l-33.644,-18.794l0,0Z" style="fill:#aebbce;"/><path id="Shade" d="M1014.73,307.8l44.455,25.037c-0.369,0.249 -0.744,0.478 -1.124,0.685c-2.696,1.472 -5.137,1.587 -6.9,0.583l-33.644,-18.794c-1.771,-0.987 -2.867,-3.093 -2.867,-6.079c-0,-0.47 0.027,-0.949 0.08,-1.432Z" style="fill-opacity:0.1;"/></g><g id="Handle1" serif:id="Handle"><path id="Main-handle" serif:id="Main handle" d="M1048.49,338.496c-2.528,-1.355 -4.099,-4.315 -4.099,-8.536c0,-8.307 6.083,-18.372 13.575,-22.463c3.605,-1.968 6.883,-2.197 9.315,-0.979l-0,-0l0.001,0c0.191,0.096 0.378,0.201 0.558,0.315l187.034,105.335l-19.054,31.83l-187.33,-105.502Z" style="fill:#314a78;"/><path id="Shade1" serif:id="Shade" d="M1044.65,326.928l195.385,110.039l-4.209,7.031l-187.33,-105.502c-2.528,-1.355 -4.099,-4.315 -4.099,-8.536c0,-0.99 0.087,-2.005 0.253,-3.032Z" style="fill:#213a68;"/><path id="End" d="M1245.3,412.999c7.492,-4.091 13.575,-0.667 13.575,7.64c-0,8.307 -6.083,18.372 -13.575,22.463c-7.492,4.091 -13.575,0.667 -13.575,-7.64c0,-8.307 6.083,-18.372 13.575,-22.463Z" style="fill:#314a78;"/></g></g></g><g id="TensorLy-Logo" serif:id="TensorLy Logo"><path id="Both-Letters--fix-gap-between-letters-" serif:id="Both Letters (fix gap between letters)" d="M0,306.25l0,204.167l176.814,-102.084l-0,408.334l176.813,-102.084l0,-408.333l176.814,-102.083l-0,408.333l353.627,204.167l-0,-204.167l-176.814,-102.083l0,-408.334l-176.813,-102.083l-530.441,306.25Z" style="fill:#213a68;"/><path id="T" d="M530.441,0l-530.441,306.25l0,204.167l176.814,-102.084l-0,408.334l176.813,-102.084l0,-408.333l176.814,-102.083l-0,-204.167Z" style="fill:#314a78;"/><path id="L" d="M530.441,0l176.813,102.083l0,408.334l176.814,102.083l-0,204.167l-353.627,-204.167l-0,-612.5Z" style="fill:#213a68;"/><path id="Tensor-top" serif:id="Tensor top" d="M901.749,581.875l159.132,-91.875l-159.132,-91.875l-159.132,91.875l159.132,91.875Z" style="fill:#aebbce;"/><g id="Tensor-front" serif:id="Tensor front"><path d="M919.43,612.5l156.943,-90.611l-0,183.75l-156.943,90.611l0,-183.75Z" style="fill:#eef5fe;"/><path d="M919.43,612.5l156.943,-90.611l-0,183.75l-156.943,90.611l0,-183.75Zm16.667,9.623l123.609,-71.366c0,-0 0,145.26 0,145.26c0,-0 -123.609,71.366 -123.609,71.366l-0,-145.26Z" style="fill:#aebbce;"/></g><path id="Reflection" d="M530.441,612.5l-353.627,204.167l353.627,204.166l353.627,-204.166l-353.627,-204.167Z" style="fill:url(#_Linear2);"/></g><defs><linearGradient id="_Linear1" x1="0" y1="0" x2="1" y2="0" gradientUnits="userSpaceOnUse" gradientTransform="matrix(1.49978e-14,236.367,-244.932,1.44733e-14,896.798,172.337)"><stop offset="0" style="stop-color:#cfd8e3;stop-opacity:1"/><stop offset="1" style="stop-color:#cfd8e3;stop-opacity:0"/></linearGradient><linearGradient id="_Linear2" x1="0" y1="0" x2="1" y2="0" gradientUnits="userSpaceOnUse" gradientTransform="matrix(2.50032e-14,408.333,-408.333,2.50032e-14,530.441,612.5)"><stop offset="0" style="stop-color:#c2cfe1;stop-opacity:0.5"/><stop offset="0.48" style="stop-color:#afbfd4;stop-opacity:0.3"/><stop offset="0.84" style="stop-color:#dfe8f4;stop-opacity:0.1"/><stop offset="1" style="stop-color:#eef5fe;stop-opacity:0.1"/></linearGradient></defs></svg>